# xmcd
#
# Track frame offsets:
#	150
#	14388
#	30283
#	47428
#	65222
#	78040
#	93046
#	106416
#	120570
#	131452
#	147827
#	160437
#	178905
#	190812
#	203969
#	218634
#	233035
#	246597
#	260296
#	273717
#	290715
#	309418
#	328454
#
# Disc length: 4682 seconds
#
# Revision: 0
# Processed by: cddbd v1.5.2PL0 Copyright (c) Steve Scherf et al.
# Submitted via: audiograbber 1.83.01
#
DISCID=52124817
DTITLE=Los Temerarios - Esos Amores
DYEAR=1900
DGENRE=
TTITLE0=Intro Mix Dj Barajas
TTITLE1=Ya Me Voy Para Siempre
TTITLE2=Esos Amores
TTITLE3=Por Tu Maldito Amor
TTITLE4=La diferencia
TTITLE5=Que De Raro Tiene
TTITLE6=Tu Camino Y El Mio
TTITLE7=Renunciacion
TTITLE8=Ni En DefenzaPropia
TTITLE9=Que Poca Suerte
TTITLE10=Es Ella La Causa
TTITLE11=M Vida Eres Tu
TTITLE12=Sufriendo Penas
TTITLE13=Las Llaves De Mi Alma
TTITLE14=Por Que Te Conoci
TTITLE15=Botella Envenenada
TTITLE16=Sombras
TTITLE17=Lloraras
TTITLE18=En Mi Viejo San Juan
TTITLE19=Derrotado Y Sin Carino
TTITLE20=Una Guitarra Llora
TTITLE21=Una Lagrima No Basta
TTITLE22=Como Te Recuerdo
EXTD=
EXTT0=
EXTT1=
EXTT2=
EXTT3=
EXTT4=
EXTT5=
EXTT6=
EXTT7=
EXTT8=
EXTT9=
EXTT10=
EXTT11=
EXTT12=
EXTT13=
EXTT14=
EXTT15=
EXTT16=
EXTT17=
EXTT18=
EXTT19=
EXTT20=
EXTT21=
EXTT22=
PLAYORDER=
